<?xml version="1.0" standalone="no"?>
<!DOCTYPE svg PUBLIC "-//W3C//DTD SVG 20010904//EN"
 "http://www.w3.org/TR/2001/REC-SVG-20010904/DTD/svg10.dtd">
<svg version="1.0" xmlns="http://www.w3.org/2000/svg"
 width="64.000000pt" height="64.000000pt" viewBox="0 0 64.000000 64.000000"
 preserveAspectRatio="xMidYMid meet">
<metadata>
Created by potrace 1.11, written by Peter Selinger 2001-2013
</metadata>
<g transform="translate(0.000000,64.000000) scale(0.100000,-0.100000)"
fill="#000000" stroke="none">
<path d="M336 608 c-19 -27 -20 -50 -4 -66 16 -16 43 -15 58 3 10 12 10 15 -4
15 -9 0 -16 5 -16 10 0 6 7 10 15 10 14 0 13 3 -1 25 -20 31 -29 31 -48 3z"/>
<path d="M392 505 c-7 -8 -29 -15 -50 -15 -25 0 -33 -3 -23 -9 21 -13 5 -41
-24 -41 -29 0 -33 14 -7 29 9 6 12 11 5 11 -6 0 -23 -14 -38 -32 -20 -24 -26
-40 -23 -66 4 -32 1 -35 -44 -58 l-48 -24 0 -85 0 -85 87 -44 88 -44 87 44 88
44 0 91 c0 53 -4 88 -9 84 -18 -10 -23 16 -7 34 23 25 20 79 -6 131 -24 48
-53 61 -76 35z"/>
</g>
</svg>
